<?xml version="1.0" encoding="utf-8"?>
<!-- Generator: Adobe Illustrator 23.0.3, SVG Export Plug-In . SVG Version: 6.00 Build 0)  -->
<svg version="1.1" id="Layer_1" xmlns="http://www.w3.org/2000/svg" xmlns:xlink="http://www.w3.org/1999/xlink" x="0px" y="0px"
	 viewBox="0 0 200 200" style="enable-background:new 0 0 200 200;" xml:space="preserve">
<style type="text/css">
	.st0{fill:#FFFFFF;}
</style>
<g>
	<g>
		<path class="st0" d="M28.02,60.25c9.07,0.11,17.46-3.05,26.16-5.1c4.93-1.16,10.34-2.05,15.31-0.66c4.77,1.34,7.85,5.09,10.85,8.8
			c1.78,2.2,6.61-1.22,4.58-3.73c-6.51-8.04-13.53-11.56-24.01-10.34c-10.86,1.26-20.95,6.32-32.01,6.18
			C25.78,55.37,24.11,60.2,28.02,60.25L28.02,60.25z"/>
	</g>
</g>
<g>
	<g>
		<path class="st0" d="M120.32,64.06c8.04-1.51,13.27-7.98,22.01-4.62c7.29,2.8,12.66,9.12,19.33,13.04
			c2.7,1.59,4.16-4.21,1.68-5.66c-7.34-4.31-13.09-11.36-21.5-13.75c-9.03-2.57-13.96,3.58-22.23,5.13
			C116.81,58.72,117.14,64.65,120.32,64.06L120.32,64.06z"/>
	</g>
</g>
<g>
	<g>
		<path class="st0" d="M92.05,74.48c7.51,5.41,5.14,15.63,3.09,23.24c-2.09,7.75-5,15.25-7.24,22.96
			c-1.08,3.72-4.94,12.06-0.38,14.71c2.2,1.28,6.54,1.35,9.07,1.67c4.25,0.53,8.52,0.72,12.8,0.71c2.87-0.01,5.36-5.06,1.64-5.04
			c-3.98,0.01-7.93-0.15-11.89-0.6c-1.79-0.2-5.23,0.01-6.6-1.01c-1.78-1.33-1.24-2.89-0.71-5.11c1.73-7.23,4.33-14.21,6.58-21.28
			c3.4-10.67,8.81-26.54-2.31-34.54C93.76,68.49,89.44,72.6,92.05,74.48L92.05,74.48z"/>
	</g>
</g>
<g>
	<g>
		<path class="st0" d="M73.97,152.12c12.8,3.75,25.86,9.37,39.48,7.99c10.08-1.02,19.34-5.48,24.96-14.09
			c-1.74-0.32-3.48-0.64-5.22-0.96c-2.83,6.34-5.64,12.71-8.92,18.83c-2.02,3.76-4.09,6.87-8.27,8.29
			c-3.09,1.05-6.45,1.31-9.69,1.41c-6.72,0.21-13.68-1.03-18.91-5.55c-4.87-4.21-7.77-10.17-10.58-15.84
			c-1.33-2.68-6.7-0.01-5.37,2.68c3.43,6.92,7.15,14.16,13.7,18.64c6.34,4.33,14.29,5.28,21.79,4.82
			c6.95-0.42,14.31-2.01,18.92-7.66c5.67-6.95,8.94-16.56,12.55-24.68c1.61-3.6-3.77-3.18-5.22-0.96
			c-12.51,19.19-40.17,7.2-56.84,2.32C73.54,146.56,70.38,151.06,73.97,152.12L73.97,152.12z"/>
	</g>
</g>
<g>
	<g>
		<path class="st0" d="M124.37,45.57c9.36-8.5,21.55-5.35,32.55-2.53c9.68,2.48,19.27,5.2,29.32,5.53c2.89,0.09,5.36-4.92,1.63-5.05
			c-22.13-0.72-47.95-18.15-67.31-0.57C117.65,45.59,121.88,47.83,124.37,45.57L124.37,45.57z"/>
	</g>
</g>
<g>
	<g>
		<path class="st0" d="M82.81,33.89c-8.83-7.31-20.26-7.56-31.19-6.97c-12.66,0.68-25.27,0.99-37.95,0.53
			c-2.83-0.1-4.49,5.44-1.01,5.57c11.34,0.4,22.67,0.32,34-0.3c11.39-0.62,23.44-1.59,32.79,6.16
			C81.73,40.75,85.14,35.82,82.81,33.89L82.81,33.89z"/>
	</g>
</g>
<g>
	<g>
		<path class="st0" d="M120.82,122.23c-0.25,1.99-0.29,4.11-0.81,6.06c-0.53,2-1.93,3.6-2.54,5.6c-0.59,1.91,2.82,1.59,3.3,0.02
			c0.61-1.99,2.01-3.56,2.54-5.6c0.51-1.95,0.55-4.06,0.81-6.06C124.37,120.23,121.03,120.59,120.82,122.23L120.82,122.23z"/>
	</g>
</g>
<g>
	<g>
		<path class="st0" d="M127.74,76.62c6.3,2.82,13.53,7.11,20.33,3.38c2.51-1.38,1.03-7.17-1.75-5.64
			c-5.54,3.04-11.72-0.82-16.82-3.11C126.33,69.82,125.15,75.46,127.74,76.62L127.74,76.62z"/>
	</g>
</g>
<g>
	<g>
		<path class="st0" d="M44.11,73.85c7.42,4.15,15.63,5.58,24.02,4.31c2.82-0.43,2.75-6.37-0.44-5.89c-7.63,1.15-14.93-0.24-21.65-4
			C43.27,66.71,41.6,72.44,44.11,73.85L44.11,73.85z"/>
	</g>
</g>
</svg>
