<?xml version="1.0" encoding="utf-8"?>
<!-- Generator: Adobe Illustrator 23.0.3, SVG Export Plug-In . SVG Version: 6.00 Build 0)  -->
<svg version="1.1" id="Layer_1" xmlns="http://www.w3.org/2000/svg" xmlns:xlink="http://www.w3.org/1999/xlink" x="0px" y="0px"
	 viewBox="0 0 200 200" style="enable-background:new 0 0 200 200;" xml:space="preserve">
<style type="text/css">
	.st0{fill:#FFFFFF;}
</style>
<g>
	<g>
		<path class="st0" d="M28.46,59.33c8.95,0.11,17.22-3,25.82-5.02c4.98-1.17,10.45-2.11,15.51-0.91c5.23,1.24,8.54,5.1,11.78,9.1
			c1.21,1.5,3.33-0.63,2.12-2.12c-6.34-7.84-12.95-11.39-23.22-10.22c-10.87,1.24-20.93,6.32-32.01,6.18
			C26.53,56.3,26.53,59.3,28.46,59.33L28.46,59.33z"/>
	</g>
</g>
<g>
	<g>
		<path class="st0" d="M120.36,62.57c8.21-1.54,13.17-8.02,22.21-4.54c7.26,2.8,12.53,9,19.17,12.9c1.67,0.98,3.18-1.61,1.51-2.59
			c-7.47-4.39-13.43-11.71-22.07-13.95c-8.64-2.25-13.69,3.79-21.62,5.28C117.67,60.03,118.47,62.92,120.36,62.57L120.36,62.57z"/>
	</g>
</g>
<g>
	<g>
		<path class="st0" d="M93.31,73.62c8.16,5.87,4.84,17.44,2.55,25.5c-2.2,7.72-5.11,15.22-7.25,22.96
			c-0.92,3.33-4.01,10.08,0.06,12.4c2.23,1.27,6.13,1.24,8.72,1.56c4.25,0.52,8.51,0.72,12.8,0.71c1.93-0.01,1.93-3.01,0-3
			c-3.98,0.01-7.94-0.15-11.89-0.6c-1.2-0.14-6.75-0.15-7.74-1.24c-1.3-1.42-0.12-4.95,0.26-6.45c1.8-7.21,4.41-14.19,6.64-21.27
			c3.29-10.45,8.12-25.41-2.64-33.15C93.26,69.9,91.76,72.5,93.31,73.62L93.31,73.62z"/>
	</g>
</g>
<g>
	<g>
		<path class="st0" d="M74.76,151.19c19.51,5.72,48.12,16.9,62.33-4.9c-0.86-0.5-1.73-1.01-2.59-1.51
			c-2.94,6.61-5.83,13.3-9.35,19.63c-4.22,7.59-10.22,9.68-18.53,10.07c-7.22,0.33-14.84-0.78-20.49-5.66
			c-4.92-4.25-7.87-10.3-10.71-16.02c-0.86-1.73-3.45-0.21-2.59,1.51c3.23,6.52,6.69,13.35,12.64,17.81
			c6.04,4.54,13.76,5.7,21.14,5.36c6.55-0.3,13.64-1.48,18.08-6.79c5.65-6.76,8.85-16.42,12.4-24.4c0.77-1.74-1.51-3.16-2.59-1.51
			c-13.26,20.34-41,8.78-58.95,3.52C73.7,147.76,72.91,150.65,74.76,151.19L74.76,151.19z"/>
	</g>
</g>
<g>
	<g>
		<path class="st0" d="M123.53,45.32c9.82-8.92,21.85-6.46,33.57-3.48c9.9,2.51,19.68,5.37,29.96,5.71c1.93,0.06,1.93-2.94,0-3
			c-13.11-0.43-25.33-5.22-38.1-7.63c-10.23-1.93-19.6-0.93-27.55,6.29C119.97,44.5,122.1,46.61,123.53,45.32L123.53,45.32z"/>
	</g>
</g>
<g>
	<g>
		<path class="st0" d="M82.2,35.32c-8.59-7.12-19.38-7.71-30.09-7.17c-13,0.66-25.92,1.05-38.94,0.58c-1.93-0.07-1.93,2.93,0,3
			c11.02,0.39,22.04,0.33,33.06-0.25c11.56-0.62,24.29-1.96,33.85,5.96C81.55,38.67,83.69,36.55,82.2,35.32L82.2,35.32z"/>
	</g>
</g>
<g>
	<g>
		<path class="st0" d="M121.49,122.24c-0.26,2.04-0.28,4.22-0.89,6.19c-0.57,1.85-1.85,3.33-2.43,5.21
			c-0.37,1.2,1.51,1.72,1.88,0.52c0.63-2.06,2.09-3.66,2.59-5.78c0.47-1.99,0.54-4.1,0.8-6.13
			C123.6,121,121.65,121.01,121.49,122.24L121.49,122.24z"/>
	</g>
</g>
<g>
	<g>
		<path class="st0" d="M127.98,78.03c6.8,0.93,14.77,2.95,20.2-2.5c1.36-1.37-0.76-3.49-2.12-2.12c-4.49,4.51-11.7,2.49-17.28,1.73
			C126.89,74.88,126.07,77.77,127.98,78.03L127.98,78.03z"/>
	</g>
</g>
<g>
	<g>
		<path class="st0" d="M44.32,72.35c7.44,4.16,15.57,5.58,23.99,4.31c1.9-0.29,1.09-3.18-0.8-2.89c-7.59,1.15-14.99-0.26-21.68-4.01
			C44.15,68.82,42.63,71.41,44.32,72.35L44.32,72.35z"/>
	</g>
</g>
</svg>
