<?xml version="1.0" encoding="utf-8"?>
<!-- Generator: Adobe Illustrator 23.0.3, SVG Export Plug-In . SVG Version: 6.00 Build 0)  -->
<svg version="1.1" id="Layer_1" xmlns="http://www.w3.org/2000/svg" xmlns:xlink="http://www.w3.org/1999/xlink" x="0px" y="0px"
	 viewBox="0 0 200 200" style="enable-background:new 0 0 200 200;" xml:space="preserve">
<style type="text/css">
	.st0{fill:#FCF1CB;}
</style>
<g>
	<g>
		<g>
			<path class="st0" d="M42.11,58.82l0.25-0.03c-0.78,0.2-1.62,0.33-2.48,0.39c1.99,0.53,4.32,0.77,5.14-1.51
				c0.42,0.98,2.23,1,2.19,0.74c0.3-0.28,0.6-0.53,0.92-0.76c-0.22,0.14-0.44,0.29-0.65,0.45c0.21-0.16,0.43-0.31,0.65-0.45
				c2-1.41,4.49-1.74,7.02-1.89c0.7-0.07,1.96-0.2,3.23-0.33c1.26-0.07,2.51-0.13,3.18-0.02c0.2,0.02,0.39,0.03,0.59,0.05
				c-0.33-0.06-0.33-0.06-0.66-0.12c0.4-0.18,0.78-0.36,1.14-0.52c0.37-0.14,0.73-0.27,1.08-0.37c-0.13-0.15-0.16-0.29-0.48-0.49
				l0.38,0.09c0.32-0.45,1.12-0.48,1.49-0.65c-0.08,0.23,0.21,0.28,0.46,0.32l-0.1-0.15c0.97,0.11,2.09,0.02,2.92,0.18
				c0.12,0.02,0.19,0.12,0.23,0.2c0.27-0.02,0.55-0.02,0.82-0.03c-0.12,0.28,0.58,0.41,0.17,0.51c0.66-0.23,1.17,0.15,1.81-0.02
				c1.9,0.6,3.78,1.57,5.79,2.75l0.04-0.12c0.71,0.39,1.66,0.48,2.18,1.36c0.79,0.25,1.61,0.9,2.29,0.71
				c0.6,0.59,1.07,0.65,1.71,1.18c0.12-0.36,0.8,0.38,0.74-0.09c0-0.7-0.31-0.49-0.32-1.08l-0.07,0.08c-1-1.99-2.26-3.92-4-5.69
				c-1.39-0.89-2.75-2.18-4.43-2.95c-1.81-0.81-3.87-1.19-5.44-1.21c-0.38,0.03-0.6-0.29-0.89-0.48c-1.44-0.08-3.24-0.29-4.79-0.07
				c0.03,0,0.06,0,0.08,0.01c-0.82,0.09-1.45-0.22-2.25-0.12c0.01,0.09-0.11,0.11-0.17,0.16c-0.08-0.2-1.25,0.12-2.38,0.51
				c-1.13,0.42-2.25,0.85-2.4,0.77c-0.08,0.04-0.15,0.07-0.24,0.1c-1.64,0.11-3.47-0.31-4.81,0.1c-0.24,0.27-0.53,0.52-0.72,0.8
				c-0.28-0.12-0.24,0.24-0.54,0.26c-0.94-0.63-1.27-0.17-0.82,0.02c-0.56,0.27-1.17,0.36-1.69,0.53c-0.22,0.13-0.44,0.26-0.67,0.39
				c-0.19,0.13-0.33,0.04-0.49-0.13c-0.49,0.26-0.39,0.02-0.97,0.09c-0.22-0.25-1.25,0.83-1.43,0.79L44.81,53
				c-0.65,0.12-1.22-0.31-1.84-0.18c-1.76,0.24-3.55,0.92-5.13,1.13c0.05,0.31,0.33-0.14,0.43,0.26c-0.94,0.16-1.93-0.06-2.86,0.04
				c-0.18-0.05-0.4-0.17-0.49-0.26c-0.31-0.07-0.15,0.17-0.37,0.16l-0.07-0.27c-0.28,0.26-0.49-0.25-0.76-0.1
				c0,0.11-0.11,0.14-0.21,0.15c-0.04-0.3-0.31,0.06-0.33-0.21l0,0.02c-0.06,0-0.1,0.03-0.18-0.01c-0.1,0.14-1.13,1.01-1.25,1.15
				l-0.06-0.05c-0.17,0.02-0.23,0.24-0.12,0.29l-0.21,0l0.02-0.02l-0.21,0c-0.04-0.02-0.09-0.16-0.04-0.29
				c-0.11,0.11-0.24,0.18-0.36,0.13c0.33,0.16,0.75,0.4,1.11,0.67c-0.14,0.11-0.4-0.03-0.55,0.01c-0.19-0.19-0.58-0.31-0.87-0.46
				c-0.06,0.02-0.1,0.35-0.25,0.2c-0.07-0.23-0.16,0.01-0.28-0.16c0.14-0.12,0.27-0.07,0.41-0.05c-0.03-0.27-0.34-0.19-0.45-0.26
				c-0.05,0.08-0.32,0-0.48,0.07c0.08-0.26-0.13-0.17-0.23-0.31c-0.11-0.03-0.18,0.07-0.14,0.16c-0.04,0.28,0.44,0.17,0.28,0.47
				c-0.04-0.14-0.26-0.09-0.38-0.08c-0.01,0.15,0.08,0.12,0,0.26c-0.13-0.03-0.28,0.15-0.35-0.01c0.03-0.04,0.08-0.02,0.12-0.01
				c-0.16-0.02,0.96-1.01,0.73-0.92c0.06,0.14-1,0.91-0.89,0.92c0.1,0.08-0.09,0.28,0.02,0.33l0.13-0.19
				c0.15,0.06,0.2,0.33,0.15,0.43c-0.25-0.02,0.74-1.05,0.52-0.9l0.09,0.07c-0.09,0.1-0.34,0.19-0.43,0.02
				c0,0.15-0.13,0.21-0.23,0.26l-0.04-0.03c-0.11,0.08-0.26,0.04-0.19,0.24c0.64-0.02-0.48,1.55,0.14,1.64
				c-0.26-0.34,0.1-0.34,0.38-0.38c0.02,0.11,0.15,0.28,0.35,0.37c0.17-0.03,0.1-0.12,0.14-0.21c0.1,0.08,0.28,0.14,0.26,0.32
				c0.14-0.21,0.22,0.14,0.38,0.06c0.14-0.1-0.01-0.09,0.09-0.19c0.21,0.02,0.51,0.06,0.69,0.08c0.07,0.16,0.29,0.44,0.15,0.71
				c-0.33-0.01,0.11-0.43-0.23-0.35c0.16,0.37-0.3,0.12-0.36,0.4c0.12,0.18,0.34,0.17,0.53,0.11l-0.04-0.05
				c0.16-0.06,0.49-0.16,0.68,0.03c-0.03,0.14,0.05,0.23-0.07,0.27l0.23,0.01c0.03-0.04,0.05-0.09-0.01-0.12
				c0.1-0.11,0.21-0.06,0.3,0.01c0.04,0.14,1.17-0.67,1.14-0.59c0.16-0.02,0.22,0.18,0.37,0.02c0.01-0.09-1.52,0.63-1.31,0.56
				c0.17,0.17,1.8-0.88,1.92-0.63c0.12-0.03,0.26-0.07,0.21-0.21c0.21,0.04-0.03,0.28,0.14,0.39c0-0.02-0.02-0.07,0.03-0.07
				l0.16,0.16c0.29-0.25,0.8-0.03,1.08-0.39c-0.07,0.17-0.14,0.46-0.33,0.63l-0.05-0.07c-0.02,0.05-0.19,0.12-0.17,0.26
				c0.22,0.07,0.39,0.01,0.58-0.17c0.05,0.03,0.1,0.06,0.14,0.1c0-0.02-0.01-0.03-0.01-0.05c0.08,0.08,0.08,0.09,0.06,0.15
				c0,0.01,0,0.02-0.01,0.03c0.2,0.39,0.76-0.4,1.17-0.25c0.1-0.08,0-0.07,0.12-0.17c0.41,0.1,0.7,0.17,1.11,0.18
				c0.09-0.2,0.09-0.28-0.1-0.43l0.31,0c-0.18,0.53,0.65,0.33,0.45,0.86c0.11,0.09,0.3,0.07,0.45-0.04
				c-0.01-0.12-0.02-0.32,0.19-0.36c0.33,0.09,0.25,0.05,0.52,0.15c0.09,0.14,0.02,0.22,0.06,0.34c0.33-0.29,0.4,0.25,0.75,0.14
				c0.21-0.1,0.64-0.22,0.59-0.49C42.04,58.4,42.09,58.6,42.11,58.82z"/>
		</g>
	</g>
</g>
<g>
	<g>
		<g>
			<path class="st0" d="M131.02,59.43l0.18-0.05c-0.52,0.27-1.13,0.47-1.75,0.67c0.84,0.08,1.69,0.15,2.31-0.05
				c0.62-0.2,1.02-0.68,1.15-1.77c0.48,0.94,1.58,1.14,1.53,0.9c0.16-0.23,0.35-0.43,0.55-0.6c-0.14,0.1-0.28,0.22-0.4,0.35
				c0.13-0.13,0.26-0.24,0.4-0.35c0.65-0.5,1.47-0.67,2.31-0.58c0.84,0.1,1.68,0.42,2.49,0.83c0.45,0.23,1.31,0.57,2.14,1.05
				c0.83,0.46,1.63,1,2.02,1.38c0.12,0.1,0.24,0.21,0.35,0.31c-0.18-0.2-0.18-0.2-0.36-0.41c0.7,0.05,1.36,0.11,1.95,0.26
				c-0.01-0.19,0.05-0.32-0.05-0.63l0.21,0.24c0.46-0.23,1.01,0.13,1.36,0.15c-0.18,0.16-0.01,0.33,0.15,0.47l0.02-0.17
				c0.62,0.53,1.51,0.94,2.08,1.41c0.08,0.06,0.09,0.18,0.08,0.27l0.68,0.29c-0.23,0.21,0.31,0.58-0.08,0.52
				c0.65,0.04,0.94,0.56,1.59,0.59c1.48,1.12,3.2,2.23,5.1,3l0.03-0.12c0.68,0.25,1.52,0.12,2.09,0.76
				c0.72,0.01,1.55,0.28,2.09-0.14c0.61,0.28,1.01,0.14,1.64,0.31c0.01-0.36,0.73-0.03,0.57-0.4c-0.14-0.6-0.35-0.28-0.47-0.76
				l-0.05,0.1c-1.16-1.23-2.33-2.4-3.6-3.55c-1.07-0.47-1.92-1.44-2.93-2.14c-1.11-0.74-2.38-1.49-3.48-2
				c-0.28-0.1-0.28-0.43-0.38-0.7c-0.96-0.54-2.04-1.45-3.22-1.99c0.02,0.01,0.04,0.03,0.05,0.04c-0.6-0.32-0.87-0.86-1.48-1.14
				c-0.04,0.08-0.13,0.03-0.2,0.05c0.05-0.21-0.92-0.5-1.93-0.71c-1.01-0.22-2.04-0.33-2.11-0.48c-0.07-0.01-0.14-0.02-0.22-0.03
				c-1.23-0.67-2.5-1.86-3.82-2c-0.31,0.15-0.64,0.27-0.9,0.47c-0.2-0.2-0.29,0.14-0.55,0.07c-0.62-0.93-1.08-0.55-0.72-0.25
				c-0.58,0.09-1.15,0.01-1.66,0.07c-0.23,0.07-0.46,0.14-0.69,0.25c-0.19,0.09-0.32-0.02-0.45-0.21c-0.51,0.18-0.38-0.06-0.95-0.03
				c-0.09-0.13-0.42,0.05-0.73,0.26c-0.31,0.23-0.59,0.48-0.68,0.46l0.07-0.07c-0.62,0.11-1.19-0.28-1.78-0.1
				c-1.68,0.41-3.13,1.43-4.38,1.99c0.13,0.28,0.24-0.21,0.45,0.15c-0.75,0.34-1.63,0.38-2.33,0.68c-0.16-0.01-0.38-0.08-0.48-0.14
				c-0.26,0-0.06,0.2-0.23,0.24l-0.14-0.24c-0.12,0.31-0.46-0.13-0.61,0.07c0.04,0.11-0.03,0.16-0.11,0.18
				c-0.13-0.27-0.21,0.11-0.31-0.14l0.01,0.02c-0.04,0.01-0.07,0.04-0.14,0.02c-0.03,0.14-0.49,1.19-0.54,1.34l-0.06-0.03
				c-0.11,0.05-0.09,0.27,0,0.3L121.54,58l0.01-0.02l-0.15,0.03c-0.03-0.02-0.1-0.14-0.1-0.28c-0.05,0.12-0.12,0.21-0.21,0.18
				c0.27,0.1,0.63,0.28,0.98,0.46c-0.07,0.14-0.3,0.05-0.4,0.11c-0.19-0.15-0.5-0.22-0.73-0.3c-0.04,0.03,0.02,0.35-0.12,0.24
				c-0.1-0.21-0.11,0.04-0.23-0.11c0.07-0.14,0.17-0.11,0.27-0.12c-0.08-0.26-0.27-0.12-0.36-0.18c-0.02,0.09-0.21,0.06-0.31,0.14
				c0-0.26-0.12-0.15-0.21-0.28c-0.08-0.02-0.11,0.09-0.06,0.18c0.02,0.28,0.33,0.12,0.27,0.43c-0.05-0.13-0.19-0.06-0.27-0.03
				c0.02,0.15,0.07,0.11,0.04,0.26c-0.1-0.02-0.17,0.18-0.24,0.03c0.01-0.04,0.05-0.03,0.08-0.03c-0.1,0,0.46-1.1,0.32-0.98
				c0.08,0.12-0.49,1.01-0.43,1.01c0.08,0.06-0.02,0.29,0.06,0.33l0.06-0.2c0.11,0.04,0.2,0.3,0.17,0.41c-0.17,0,0.33-1.12,0.2-0.94
				l0.07,0.06c-0.04,0.11-0.2,0.22-0.28,0.07c0.02,0.15-0.05,0.22-0.12,0.28l-0.03-0.02c-0.06,0.09-0.17,0.07-0.1,0.26
				c0.46-0.1-0.12,1.59,0.36,1.6c-0.25-0.3,0.02-0.35,0.23-0.43c0.04,0.11,0.16,0.26,0.34,0.32c0.13-0.05,0.06-0.13,0.06-0.22
				c0.09,0.06,0.25,0.08,0.27,0.26c0.06-0.23,0.2,0.09,0.31-0.01c0.09-0.12-0.03-0.09,0.02-0.21c0.17-0.01,0.42-0.05,0.56-0.06
				c0.1,0.14,0.35,0.37,0.31,0.66c-0.27,0.05-0.02-0.43-0.28-0.29c0.22,0.33-0.21,0.18-0.19,0.46c0.14,0.15,0.32,0.09,0.45,0
				l-0.04-0.04c0.12-0.09,0.35-0.25,0.56-0.1c0.01,0.14,0.11,0.21,0.02,0.27l0.19-0.04c0.01-0.05,0.02-0.1-0.04-0.11
				c0.05-0.13,0.15-0.11,0.25-0.06c0.08,0.13,0.73-0.92,0.72-0.83c0.12-0.06,0.24,0.12,0.3-0.06c-0.02-0.1-1.02,0.95-0.88,0.83
				c0.19,0.11,1.17-1.24,1.33-1.04c0.09-0.05,0.18-0.13,0.1-0.25c0.18-0.01,0.07,0.27,0.24,0.34c-0.01-0.02-0.04-0.06,0-0.07
				l0.18,0.11c0.14-0.31,0.61-0.23,0.73-0.62c0,0.17,0.04,0.46-0.05,0.66l-0.06-0.05c0,0.05-0.11,0.16-0.05,0.29
				c0.19,0.01,0.31-0.08,0.41-0.29c0.05,0.02,0.1,0.04,0.14,0.06c-0.01-0.02-0.02-0.03-0.03-0.05c0.09,0.05,0.09,0.07,0.1,0.13
				c0,0.01,0,0.02,0,0.03c0.29,0.32,0.47-0.54,0.84-0.5c0.05-0.09-0.03-0.07,0.04-0.19c0.35,0,0.6,0.01,0.94-0.06
				c0.01-0.21-0.02-0.28-0.22-0.38l0.24-0.06c0.03,0.53,0.62,0.19,0.63,0.73c0.11,0.06,0.25,0.02,0.34-0.12
				c-0.04-0.11-0.12-0.29,0.03-0.37c0.28,0.03,0.21,0.01,0.45,0.06c0.11,0.12,0.08,0.21,0.14,0.31c0.17-0.31,0.38,0.19,0.62,0.03
				c0.13-0.12,0.42-0.28,0.31-0.53C130.86,59.03,130.95,59.22,131.02,59.43z"/>
		</g>
	</g>
</g>
<g>
	<g>
		<g>
			<path class="st0" d="M96.88,89.26l-0.08,0.33c0.16-1.07,0.39-2.17,0.57-3.24c-1.07,2.3-2.43,4.83-0.95,7.21
				c-1.06-0.02-2.14,2.21-1.9,2.32c0.07,0.54,0.08,1.08,0.07,1.62c0.02-0.37,0.04-0.73,0.03-1.1c0.01,0.37-0.01,0.73-0.03,1.1
				c-0.08,3.41-1.54,6.79-3.13,10.26c-0.86,1.93-2.91,7.33-3.84,9.38l-0.38,0.89c0.25-0.49,0.25-0.49,0.49-0.97
				c-0.12,1.38-0.22,2.62-0.36,3.82c0.2-0.16,0.35-0.15,0.69-0.57l-0.26,0.55c0.28,0.65-0.09,1.86-0.05,2.49
				c-0.19-0.18-0.35,0.26-0.49,0.65l0.19-0.12c-0.49,1.5-0.72,3.32-1.02,4.72c-0.06,0.29-0.19,0.49-0.29,0.62
				c-0.08,0.69-0.13,1.35-0.08,1.98c-0.16-0.04-0.23,0.38-0.25,0.7c-0.02,0.32-0.02,0.55-0.18,0.11c0.29,0.74,0.59,1.51,1.16,2.09
				c0.46,0.47,1.03,0.77,1.69,0.85c0.54,0.24,1.21,0.32,1.82,0.46c0.31,0.06,0.63,0.13,0.94,0.18l0.67,0.1
				c0.87,0.12,1.76,0.22,2.66,0.29c1.79,0.14,3.6,0.18,5.38,0.09l-0.07-0.12c1.25-0.09,2.37-0.61,3.85-0.32
				c1.09-0.35,2.6-0.52,3.03-1.15c1.21-0.06,1.7-0.38,2.88-0.55c-0.31-0.32,1.14-0.39,0.56-0.64c-0.78-0.44-0.82-0.06-1.48-0.42
				l0.02,0.11c-3.11-0.47-6.12-0.93-9.15-1.39c-2.08,0.06-4.27-0.47-6.39-0.76c-0.32-0.04-0.65-0.08-0.98-0.12l-0.29,0.01
				c-0.2,0.01-0.45,0.03-0.66-0.06c-0.3-0.17-0.34-0.48-0.4-0.76c-0.03-0.09,0.03-0.17,0.12-0.23c0.04-0.03,0.1-0.06,0.15-0.08
				c0.05-0.02,0.1-0.04,0.16-0.15c0.21-1.81,0.87-4.04,1.25-6.09c-0.01,0.04-0.03,0.07-0.04,0.1c0.25-1.08,0.78-1.78,1.04-2.83
				c-0.09-0.02-0.05-0.18-0.07-0.27c0.42-0.05,1.08-6.37,1.45-6.67c0.02-0.11,0.04-0.23,0.06-0.35c0.91-2.14,2.46-4.16,3.01-6.09
				c-0.05-0.48-0.07-1-0.17-1.42c0.28-0.28-0.03-0.45,0.15-0.85c1.14-0.79,0.99-1.51,0.53-1.06c0.16-0.89,0.49-1.73,0.69-2.51
				c0.04-0.37,0.08-0.74,0.12-1.12c0.02-0.33,0.19-0.46,0.42-0.56c0.1-0.82,0.24-0.53,0.55-1.34c0.35-0.12,0.08-2.21,0.23-2.42
				l0.01,0.15c0.3-0.95,0.98-1.47,1.23-2.42c0.81-2.61,1.09-5.72,1.2-8.46c-0.31-0.03,0.06,0.6-0.35,0.62
				c0.1-1.58,0.41-3.25,0.16-4.96c0.02-0.32,0.11-0.73,0.17-0.89c-0.02-0.58-0.22-0.29-0.28-0.7l0.26-0.13
				c-0.38-0.52,0.05-0.95-0.24-1.47c-0.11,0.01-0.2-0.19-0.27-0.38c0.27-0.12-0.24-0.59,0.01-0.66l-0.02,0
				c-0.05-0.12-0.1-0.19-0.11-0.36c-0.09-0.09-0.56-0.57-1.05-1c-0.5-0.44-1.01-0.83-1.13-0.89l-0.02-0.12
				c-0.18-0.27-0.45-0.26-0.39-0.07l-0.21-0.34l0.04,0.03l-0.22-0.33c-0.02-0.07,0.03-0.22,0.21-0.21c-0.23-0.12-0.43-0.29-0.53-0.5
				c0.26,0.62,0.51,1.4,0.58,2.09c-0.22-0.17-0.34-0.64-0.54-0.85c-0.03-0.39-0.33-1.06-0.61-1.57c-0.1-0.08-0.39,0.08-0.48-0.22
				c0.07-0.26-0.23-0.22-0.28-0.5c0.28,0.1,0.43,0.33,0.61,0.54c0.17-0.22-0.34-0.61-0.44-0.82c-0.13-0.01-0.48-0.44-0.79-0.6
				c0.28-0.11-0.11-0.3-0.19-0.54c-0.17-0.17-0.35-0.18-0.33-0.04c-0.22,0.18,0.63,0.7,0.19,0.73c0.02-0.16-0.36-0.4-0.56-0.52
				c-0.09,0.12,0.07,0.19-0.15,0.22c-0.2-0.18-0.53-0.17-0.57-0.39c0.06-0.01,0.14,0.07,0.2,0.12c-0.14-0.1,0.39-0.07,0.91,0.02
				c0.52,0.09,1.02,0.22,0.81,0.1c0,0.09-0.55-0.06-1.06-0.17c-0.53-0.1-1.01-0.18-0.92-0.12c0.13,0.18-0.27,0.16-0.12,0.32
				l0.3-0.03c0.21,0.21,0.15,0.5,0.01,0.53c-0.19-0.14,0.24-0.18,0.67-0.16c0.43,0.02,0.87,0.09,0.65,0.02l0.09,0.17
				c-0.2-0.04-0.64-0.26-0.69-0.5c-0.09,0.12-0.32,0.03-0.52-0.04l-0.04-0.06c-0.21-0.05-0.43-0.24-0.43,0.01
				c0.5,0.32,0.12,0.53-0.26,0.76c-0.38,0.23-0.73,0.49-0.35,0.8c-0.17-0.51,0.32-0.22,0.7,0.03c-0.03,0.12,0.02,0.37,0.21,0.64
				c0.22,0.16,0.2,0.01,0.3-0.02c0.07,0.16,0.24,0.4,0.09,0.5c0.3-0.01,0.15,0.33,0.37,0.46c0.23,0.09,0.05-0.07,0.24-0.03
				c0.21,0.27,0.5,0.63,0.63,0.87c-0.06,0.19-0.11,0.6-0.45,0.59c-0.27-0.4,0.45-0.11,0.09-0.48c-0.15,0.41-0.36-0.28-0.65-0.15
				c-0.02,0.23,0.18,0.47,0.38,0.65l0.01-0.07c0.19,0.15,0.53,0.49,0.5,0.81c-0.14,0.03-0.17,0.17-0.29,0.05
				c0.05,0.09,0.11,0.18,0.15,0.28c0.06,0.01,0.11,0.02,0.09-0.07c0.17,0.07,0.2,0.23,0.19,0.37c-0.05,0.05,0.29,0.34,0.62,0.63
				c0.33,0.3,0.65,0.62,0.59,0.61c0.1,0.22-0.07,0.35,0.15,0.51c0.05-0.01-0.26-0.49-0.62-0.9c-0.34-0.41-0.71-0.75-0.61-0.63
				c-0.02,0.12,0.45,0.59,0.87,1.13c0.42,0.53,0.77,1.11,0.67,1.22c0.06,0.16,0.16,0.36,0.28,0.27c0.03,0.3-0.29,0-0.35,0.24
				c0.02,0,0.06-0.04,0.08,0.03l-0.12,0.24c0.34,0.38,0.22,1.09,0.58,1.5c-0.18-0.11-0.47-0.21-0.67-0.47l0.06-0.07
				c-0.05-0.03-0.16-0.26-0.29-0.22c-0.03,0.29,0.05,0.52,0.24,0.78c-0.03,0.06-0.05,0.13-0.08,0.18c0.02,0,0.03-0.01,0.05-0.01
				c-0.07,0.11-0.09,0.1-0.15,0.08c-0.01,0-0.02-0.01-0.04-0.01c-0.38,0.23,0.43,1.04,0.25,1.59c0.07,0.15,0.07,0.01,0.17,0.19
				c-0.13,0.54-0.24,0.9-0.34,1.45c0.18,0.17,0.25,0.19,0.44-0.02l-0.06,0.42c-0.47-0.38-0.47,0.77-0.94,0.34
				c-0.11,0.12-0.15,0.36-0.08,0.59c0.12,0.03,0.31,0.08,0.29,0.37c-0.19,0.39-0.12,0.3-0.31,0.62c-0.16,0.06-0.21-0.06-0.34-0.06
				c0.15,0.53-0.38,0.41-0.41,0.89c0.01,0.3-0.05,0.9,0.22,0.96C97.3,89.37,97.1,89.33,96.88,89.26z"/>
		</g>
	</g>
</g>
<g>
	<g>
		<g>
			<path class="st0" d="M108.69,160.62c0.23,0.02,0.45,0.04,0.68,0.04c-2.23-0.01-4.51-0.3-6.71-0.73c2.33,0.81,5.03,1.48,7.68,1.52
				c2.62,0.03,5.12-0.5,6.83-1.85c0.3,0.51,1.67,0.62,3,0.54c1.32-0.13,2.58-0.43,2.58-0.59c0.93-0.53,1.87-1.01,2.79-1.57
				c-0.64,0.37-1.29,0.72-1.94,1.04c0.65-0.32,1.3-0.67,1.94-1.04c2.3-1.33,4.6-2.79,6.78-4.57c2.18-1.77,4.24-3.89,5.92-6.39
				l-5.06-2.65c-0.66,1.28-1.33,2.58-2,3.88c-0.87,1.68-2.41,4.84-4.03,7.92c-1.61,3.09-3.34,6.12-4.38,7.68
				c-0.29,0.43-0.57,0.86-0.86,1.29c0.51-0.67,0.51-0.68,1.02-1.41c-0.83,2.12-1.57,3.78-2.59,5.02c0.31-0.1,0.45-0.01,1.08-0.41
				c-0.22,0.2-0.44,0.39-0.66,0.57c-0.12,0.43-0.54,0.95-1.04,1.41c-0.52,0.45-1.09,0.86-1.46,1.14c0.07-0.29-0.58,0-1.18,0.22
				l0.29,0.03c-2.23,0.93-5.16,1.67-7.52,1.89c-0.33,0.04-0.58-0.03-0.74-0.09c-0.75,0.12-1.51,0.25-2.26,0.34
				c0.16-0.31-1.89-0.2-0.82-0.43c-1.69,0.43-3.39,0.18-5.02,0.43c-5.73-0.35-11.63-2.02-16.2-5.94l0.02,0.19
				c-1.62-1.31-3.33-2.42-4.66-4.71c-1.41-1.32-2.94-3.57-3.86-3.94c-1.13-1.9-1.81-2.55-2.93-4.41c-0.04,0.64-1.28-1.71-1.03-0.65
				c0.24,1.48,0.61,1.38,0.84,2.64l0.08-0.08c1.08,2.66,2.3,5.33,3.84,7.93c1.54,2.59,3.42,5.12,5.81,7.32
				c1.71,1.32,3.6,2.61,5.64,3.62c2.03,1.02,4.19,1.78,6.33,2.24c4.63,0.99,9.61,0.82,13.39,0.26c0.9-0.16,1.58,0.05,2.39,0.11
				c1.77-0.28,3.82-0.61,5.93-1.26c2.1-0.63,4.27-1.64,6.05-3.05c-0.07,0.05-0.14,0.09-0.19,0.12c1.9-1.45,3.39-2.69,4.57-4.56
				c-0.08-0.04,0.1-0.33,0.15-0.49c0.14-0.02,0.6-0.75,1.12-1.8c0.52-1.05,1.11-2.41,1.69-3.8c1.16-2.77,2.21-5.61,2.48-5.88
				c0.07-0.2,0.15-0.4,0.23-0.6c1.92-3.63,4.37-7.18,5.77-10.42l-5.15-2.69c-0.04,0.06-0.08,0.12-0.12,0.18
				c-0.23,0.65-0.45,1.43-0.68,2c-0.5,0.32-0.3,0.63-0.77,1.13c-0.93,0.33-1.47,0.72-1.72,0.98c-0.26,0.24-0.17,0.39,0.27,0.21
				c-1,1.03-2.19,1.87-3.28,2.56c-0.49,0.36-0.94,0.75-1.47,1.08c-0.43,0.3-0.75,0.32-1.07,0.26c-1.16,0.66-0.89,0.31-2.2,0.76
				c-0.21-0.09-0.98,0.33-1.78,0.74c-0.81,0.37-1.63,0.81-1.84,0.79l0.22-0.09c-1.62,0.32-2.78-0.03-4.35,0.15
				c-2.19,0.18-4.49,0.26-6.75,0.14c-2.27-0.11-4.54-0.39-6.6-0.81c-0.1,0.31,0.92,0.09,0.9,0.5c-2.45-0.46-4.82-1.4-7.26-2.1
				c-0.42-0.2-0.92-0.49-1.1-0.65c-0.75-0.33-0.5,0.01-1.07-0.19l0-0.29c-0.9-0.01-1.14-0.66-1.96-0.78
				c-0.07,0.1-0.37,0.02-0.64-0.07c0.07-0.29-0.87-0.25-0.75-0.5l-0.01,0.02c-0.17-0.06-0.29-0.08-0.49-0.19
				c-0.35,0.01-3.63-0.18-4.01-0.17l-0.14-0.1c-0.46-0.14-0.72,0.01-0.47,0.15l-0.56-0.2l0.07,0l-0.56-0.19
				c-0.1-0.06-0.17-0.23,0.03-0.3c-0.35,0-0.73-0.06-1.03-0.21c0.83,0.46,1.85,1.06,2.68,1.64c-0.41-0.02-1.05-0.39-1.47-0.49
				c-0.43-0.34-1.39-0.83-2.15-1.2c-0.18-0.04-0.4,0.24-0.75-0.02c-0.13-0.28-0.45-0.13-0.73-0.39c0.42,0,0.77,0.17,1.15,0.3
				c0.01-0.28-0.88-0.47-1.16-0.63c-0.17,0.04-0.89-0.27-1.38-0.35c0.28-0.19-0.33-0.28-0.57-0.49c-0.31-0.12-0.54-0.08-0.44,0.04
				c-0.18,0.24,1.22,0.54,0.69,0.69c-0.07-0.17-0.71-0.3-1.05-0.39c-0.05,0.15,0.2,0.18-0.06,0.26c-0.36-0.14-0.81-0.08-0.98-0.3
				c0.08-0.02,0.23,0.05,0.33,0.09c-0.48-0.16,2.91-0.19,2.26-0.29c0.13,0.17-3.02,0.06-2.7,0.17c0.27,0.16-0.29,0.21,0,0.35
				l0.39-0.08c0.4,0.18,0.5,0.49,0.32,0.55c-0.69-0.23,2.28-0.43,1.64-0.45l0.22,0.14c-0.28,0.02-0.98-0.1-1.2-0.33
				c-0.05,0.15-0.4,0.1-0.7,0.07l-0.09-0.05c-0.31-0.01-0.71-0.17-0.58,0.08c1.72,0.48-1.55,1.16,0.08,1.73
				c-0.6-0.53,0.33-0.26,1.06-0.09c0.04,0.13,0.31,0.38,0.8,0.63c0.46,0.11,0.3-0.04,0.41-0.09c0.23,0.15,0.68,0.35,0.57,0.51
				c0.41-0.1,0.52,0.3,0.96,0.36c0.4,0.02,0-0.1,0.29-0.11c0.55,0.19,1.31,0.47,1.74,0.65c0.12,0.21,0.55,0.66,0.09,0.78
				c-0.83-0.3,0.45-0.3-0.44-0.52c0.26,0.48-0.8-0.15-1.05,0.08c0.23,0.25,0.79,0.43,1.27,0.53l-0.08-0.08
				c0.43,0.08,1.28,0.27,1.67,0.61c-0.15,0.09,0.02,0.25-0.3,0.19l0.56,0.21c0.09-0.02,0.17-0.03,0.02-0.12
				c0.3-0.01,0.55,0.13,0.73,0.27c0.02,0.16,3.21,0.4,3.1,0.45c0.41,0.12,0.45,0.36,0.89,0.34c0.08-0.09-4.08-0.77-3.52-0.65
				c0.31,0.26,4.87,0.8,5.06,1.11c0.31,0.08,0.69,0.16,0.66,0c0.5,0.22-0.23,0.22,0.1,0.45c0.01-0.02-0.01-0.08,0.11-0.04l0.3,0.28
				c0.87,0.02,1.98,0.64,2.91,0.57c-0.29,0.08-0.64,0.27-1.23,0.26l-0.08-0.1c-0.09,0.02-0.55-0.06-0.58,0.08
				c0.49,0.24,0.95,0.34,1.54,0.35c0.09,0.06,0.2,0.13,0.27,0.19c0-0.02,0-0.04,0.01-0.06c0.16,0.13,0.13,0.14,0.05,0.18
				c-0.01,0.01-0.02,0.02-0.05,0.02c0.22,0.5,2.13,0.27,3.04,0.71c0.3,0.01,0.04-0.06,0.42-0.06c0.95,0.38,1.61,0.66,2.64,0.95
				c0.37-0.11,0.41-0.18,0.04-0.44l0.78,0.21c-0.81,0.35,1.41,0.7,0.53,1.04c0.22,0.15,0.7,0.25,1.16,0.24
				c0.06-0.12,0.16-0.28,0.73-0.22c0.77,0.26,0.59,0.18,1.23,0.41c0.14,0.18-0.11,0.21-0.1,0.34c1.04-0.07,0.86,0.43,1.84,0.5
				c0.61,0.03,1.84,0.05,1.88-0.22C108.78,160.2,108.78,160.4,108.69,160.62z"/>
		</g>
	</g>
</g>
<g>
	<g>
		<g>
			<path class="st0" d="M136.22,40.34l0.25-0.01c-0.78,0.15-1.63,0.19-2.47,0.31c2.05,0.42,3.92,1.07,5.33-0.94
				c0.18,1.04,1.9,1.58,1.95,1.34c0.38-0.17,0.77-0.31,1.17-0.4c-0.27,0.05-0.54,0.12-0.81,0.2c0.27-0.08,0.53-0.15,0.81-0.2
				c2.53-0.61,5.29,0.28,8.04,1.28c1.53,0.51,5.77,1.79,7.33,2.52c0.23,0.1,0.46,0.19,0.68,0.28c-0.37-0.19-0.37-0.19-0.74-0.39
				c1.06-0.02,2.04-0.05,2.96,0.01c-0.12-0.19-0.11-0.34-0.42-0.64l0.42,0.22c0.52-0.32,1.46-0.05,1.95-0.12
				c-0.15,0.2,0.18,0.33,0.48,0.45l-0.08-0.18c1.14,0.4,2.56,0.57,3.61,0.86c0.15,0.04,0.24,0.15,0.28,0.24l1.06,0.08
				c-0.15,0.28,0.78,0.47,0.25,0.54c0.84-0.16,1.57,0.23,2.39,0.03c2.62,0.54,5.48,0.9,8.31,0.77l-0.05-0.12
				c0.99-0.05,1.91-0.58,3.04-0.23c0.87-0.34,2.07-0.46,2.43-1.08c0.95-0.03,1.34-0.36,2.26-0.48c-0.23-0.33,0.9-0.36,0.45-0.62
				c-0.59-0.47-0.63-0.09-1.13-0.47l0.01,0.11c-2.34-0.55-4.65-1.08-7-1.59c-1.63,0.03-3.31-0.5-4.98-0.78
				c-1.8-0.25-3.78-0.51-5.38-0.63c-0.39,0-0.59-0.32-0.86-0.55c-1.45-0.22-3.22-0.79-4.87-1.05c0.03,0.01,0.06,0.02,0.08,0.03
				c-0.87-0.17-1.43-0.66-2.27-0.82c-0.02,0.09-0.15,0.06-0.23,0.09c-0.04-0.45-5.17-0.42-5.41-0.71c-0.09,0-0.19-0.01-0.28-0.02
				c-1.74-0.61-3.44-1.83-5.04-2.06c-0.38,0.13-0.8,0.23-1.13,0.39c-0.24-0.23-0.36,0.1-0.69-0.01c-0.71-0.99-1.28-0.72-0.88-0.35
				c-0.73-0.01-1.43-0.19-2.07-0.24c-0.3,0.02-0.61,0.05-0.92,0.09c-0.26,0.04-0.39-0.1-0.5-0.31c-0.67,0.05-0.46-0.14-1.15-0.28
				c-0.15-0.32-1.79,0.37-1.98,0.28l0.12-0.04c-0.81-0.07-1.36-0.64-2.19-0.63c-2.31-0.13-4.82,0.54-6.88,1.09
				c0.07,0.3,0.43-0.2,0.57,0.19c-1.21,0.29-2.54,0.36-3.74,0.84c-0.25,0.02-0.57-0.01-0.71-0.05c-0.42,0.08-0.16,0.24-0.44,0.34
				l-0.16-0.23c-0.3,0.4-0.72,0.02-1.04,0.33c0.03,0.11-0.09,0.2-0.23,0.26c-0.16-0.26-0.39,0.25-0.51,0l0.01,0.02
				c-0.08,0.04-0.13,0.09-0.25,0.11c-0.12,0.17-1.02,1.72-1.07,1.92l-0.09,0.01c-0.19,0.14-0.14,0.38,0,0.35l-0.24,0.15l0.01-0.04
				l-0.24,0.15c-0.06,0.01-0.19-0.07-0.2-0.22c-0.07,0.18-0.18,0.34-0.34,0.39c0.47-0.14,1.08-0.24,1.62-0.26
				c-0.1,0.19-0.46,0.26-0.61,0.41c-0.32-0.02-0.82,0.16-1.22,0.3c-0.06,0.07,0.1,0.36-0.15,0.37c-0.22-0.12-0.17,0.15-0.4,0.13
				c0.07-0.22,0.24-0.3,0.4-0.41c-0.2-0.19-0.48,0.16-0.65,0.2c0,0.11-0.34,0.29-0.47,0.5c-0.1-0.26-0.25,0-0.45,0
				c-0.14,0.09-0.14,0.23-0.03,0.26c0.15,0.24,0.58-0.31,0.61,0.06c-0.13-0.06-0.33,0.18-0.44,0.31c0.1,0.11,0.16,0.01,0.18,0.19
				c-0.16,0.1-0.17,0.37-0.36,0.32c0-0.05,0.07-0.09,0.11-0.12c-0.2,0.16,0.28-1.64,0.11-1.36c0.14,0.05-0.4,1.62-0.27,1.51
				c0.16-0.04,0.12,0.27,0.27,0.21l-0.01-0.25c0.19-0.1,0.44,0.04,0.46,0.17c-0.27,0.22,0-1.44-0.11-1.13l0.14-0.02
				c-0.03,0.15-0.21,0.45-0.42,0.42c0.1,0.11,0.02,0.27-0.05,0.4l-0.05,0.02c-0.05,0.15-0.22,0.27-0.02,0.35
				c0.58-0.58,0.69,1.48,1.32,1.01c-0.47-0.02-0.16-0.32,0.06-0.58c0.1,0.06,0.32,0.08,0.56-0.01c0.14-0.16,0.01-0.17-0.01-0.26
				c0.14-0.02,0.35-0.11,0.44,0.04c-0.01-0.27,0.28-0.06,0.38-0.25c0.07-0.18-0.07-0.06-0.04-0.22c0.22-0.14,0.52-0.34,0.71-0.43
				c0.16,0.08,0.53,0.18,0.54,0.49c-0.32,0.21-0.14-0.43-0.42-0.14c0.37,0.2-0.21,0.3-0.09,0.57c0.21,0.06,0.4-0.1,0.54-0.26
				l-0.06-0.01c0.11-0.16,0.38-0.43,0.66-0.39c0.04,0.14,0.17,0.17,0.08,0.27l0.22-0.13c0-0.05,0-0.11-0.07-0.09
				c0.04-0.16,0.17-0.18,0.29-0.16c0.09,0.1,0.82-1.24,0.84-1.13c0.16-0.1,0.3,0.06,0.39-0.16c-0.02-0.05-0.34,0.28-0.63,0.6
				c-0.28,0.34-0.52,0.66-0.43,0.57c0.19,0.03,1.41-1.71,1.67-1.51c0.12-0.07,0.25-0.18,0.15-0.29c0.24-0.05,0.07,0.27,0.27,0.31
				c-0.01-0.02-0.04-0.06,0-0.08l0.22,0.09c0.23-0.35,0.81-0.34,1.04-0.75c-0.04,0.19-0.04,0.48-0.19,0.71l-0.07-0.05
				c-0.01,0.05-0.17,0.19-0.1,0.31c0.24-0.01,0.4-0.12,0.56-0.34c0.06,0.02,0.12,0.03,0.17,0.05c-0.01-0.02-0.02-0.03-0.03-0.05
				c0.11,0.05,0.1,0.07,0.1,0.13c0,0.01,0,0.02,0,0.04c0.29,0.32,0.7-0.59,1.16-0.53c0.09-0.1-0.01-0.07,0.1-0.2
				c0.45,0.01,0.76,0.04,1.2,0c0.08-0.21,0.07-0.28-0.15-0.41l0.33-0.04c-0.14,0.54,0.71,0.27,0.54,0.82
				c0.12,0.08,0.3,0.04,0.46-0.07c-0.01-0.12-0.04-0.32,0.18-0.37c0.34,0.08,0.26,0.04,0.54,0.13c0.09,0.14,0.02,0.22,0.06,0.34
				c0.34-0.28,0.41,0.26,0.75,0.16c0.21-0.1,0.65-0.18,0.62-0.46C136.18,39.92,136.21,40.12,136.22,40.34z"/>
		</g>
	</g>
</g>
<g>
	<g>
		<g>
			<path class="st0" d="M67.5,27.41l-0.3-0.08c0.99,0.14,2.01,0.44,2.99,0.79c-1.95-1.46-4.68-2.67-6.55-0.81
				c-0.08-1.08-2.25-1.71-2.3-1.44c-0.46,0.17-0.92,0.32-1.37,0.44c0.32-0.07,0.63-0.15,0.94-0.23c-0.32,0.08-0.63,0.17-0.94,0.23
				c-2.88,0.76-5.91,0.52-9.05,0.29c-1.75-0.1-6.36-0.07-8.1-0.31c-0.26-0.02-0.51-0.05-0.76-0.07c0.43,0.08,0.43,0.08,0.85,0.15
				c-1.05,0.33-1.99,0.65-2.92,0.86c0.17,0.15,0.2,0.29,0.6,0.49l-0.48-0.08c-0.42,0.45-1.42,0.47-1.88,0.67
				c0.09-0.23-0.28-0.27-0.61-0.29l0.13,0.15c-1.24-0.06-2.68,0.16-3.79,0.16c-0.15,0-0.27-0.08-0.34-0.16l-1.06,0.2
				c0.08-0.31-0.89-0.26-0.38-0.46c-0.79,0.37-1.6,0.16-2.35,0.55c-2.71,0.07-5.6,0.29-8.41,0.77l0.07,0.12
				c-0.99,0.19-1.87,0.78-3.06,0.55c-0.87,0.39-2.09,0.57-2.45,1.21c-0.99,0.06-1.4,0.37-2.38,0.5c0.24,0.33-0.96,0.35-0.49,0.62
				c0.63,0.47,0.68,0.09,1.22,0.47l-0.01-0.11c2.55,0.57,5.11,0.91,7.72,1.09c1.74-0.25,3.62-0.01,5.43-0.1
				c1.95-0.12,4.05-0.35,5.71-0.64c0.4-0.1,0.69,0.16,1.03,0.31c1.53-0.17,3.48-0.12,5.21-0.35c-0.03,0-0.06,0-0.08-0.01
				c0.92-0.09,1.62,0.22,2.51,0.13c-0.01-0.09,0.13-0.1,0.2-0.15c0.18,0.43,5.23-1.13,5.55-0.91c0.09-0.03,0.19-0.05,0.28-0.07
				c1.9,0.08,3.88,0.78,5.45,0.64c0.33-0.22,0.72-0.41,1-0.64c0.29,0.17,0.33-0.18,0.67-0.15c0.88,0.82,1.37,0.45,0.92,0.16
				c0.7-0.13,1.4-0.07,2.02-0.1c0.28-0.07,0.57-0.13,0.86-0.2c0.25-0.07,0.38,0.06,0.5,0.26c0.63-0.11,0.44,0.1,1.09,0.2
				c0.14,0.3,1.65-0.4,1.84-0.3l-0.11,0.04c0.75,0.1,1.2,0.71,1.91,0.81c1.96,0.41,4.12,0.59,5.84,1.17c0.1-0.3-0.4-0.04-0.32-0.44
				c1.03,0.33,1.94,1.02,2.9,1.44c0.15,0.15,0.3,0.38,0.34,0.5c0.26,0.23,0.24-0.06,0.45,0.07l-0.08,0.27
				c0.41-0.07,0.34,0.5,0.68,0.52c0.06-0.09,0.18-0.06,0.28,0c-0.13,0.27,0.33,0.14,0.19,0.38l0.01-0.02
				c0.06,0.04,0.11,0.04,0.16,0.12c0.16-0.05,1.65-0.16,1.83-0.17l0.03,0.08c0.16,0.09,0.35-0.05,0.29-0.16l0.19,0.14l-0.03,0
				l0.19,0.14c0.02,0.04-0.01,0.19-0.14,0.26c0.17-0.01,0.32,0.02,0.4,0.14c-0.19-0.37-0.45-0.82-0.63-1.29
				c0.19,0,0.36,0.29,0.53,0.36c0.08,0.27,0.33,0.66,0.52,0.96c0.07,0.03,0.31-0.22,0.35,0c-0.07,0.23,0.15,0.11,0.16,0.32
				c-0.2,0-0.28-0.14-0.41-0.24c-0.13,0.23,0.2,0.38,0.25,0.51c0.1-0.03,0.28,0.22,0.48,0.28c-0.23,0.15,0.01,0.23,0.01,0.41
				c0.07,0.1,0.2,0.08,0.22-0.03c0.21-0.19-0.28-0.46,0.05-0.57c-0.05,0.14,0.17,0.26,0.28,0.34c0.1-0.12,0-0.15,0.17-0.2
				c0.09,0.12,0.34,0.09,0.3,0.27c-0.05,0.01-0.08-0.05-0.11-0.08c0.13,0.13-1.46,0.08-1.2,0.18c0.03-0.16,1.43,0.01,1.34-0.07
				c-0.04-0.14,0.25-0.15,0.19-0.27l-0.23,0.05c-0.09-0.15,0.03-0.41,0.14-0.45c0.2,0.2-1.31,0.27-1.01,0.32l-0.03-0.12
				c0.14-0.02,0.41,0.1,0.39,0.29c0.1-0.12,0.24-0.07,0.37-0.03L79.37,38c0.14,0.02,0.25,0.16,0.32-0.05
				c-0.58-0.46,1.41-0.84,0.91-1.38c0.02,0.46-0.31,0.19-0.58,0.01c0.05-0.11,0.05-0.33-0.08-0.55c-0.18-0.1-0.17,0.02-0.26,0.07
				c-0.04-0.13-0.18-0.31-0.05-0.43c-0.26,0.07-0.12-0.26-0.32-0.32c-0.19-0.02-0.05,0.08-0.2,0.09c-0.2-0.16-0.47-0.39-0.62-0.54
				c0.03-0.18-0.01-0.57,0.28-0.68c0.31,0.26-0.36,0.26,0.01,0.45c0.07-0.41,0.36,0.12,0.59-0.07c-0.01-0.22-0.23-0.37-0.45-0.46
				l0.01,0.07c-0.19-0.08-0.57-0.22-0.64-0.5c0.11-0.09,0.09-0.22,0.23-0.17l-0.22-0.17c-0.05,0.02-0.11,0.04-0.05,0.1
				c-0.16,0.02-0.24-0.1-0.29-0.22c0.04-0.14-1.56-0.21-1.48-0.24c-0.18-0.08-0.12-0.29-0.36-0.25c-0.07,0.07,1.89,0.46,1.64,0.39
				c-0.08-0.24-2.3-0.45-2.3-0.7c-0.14-0.05-0.31-0.1-0.34,0.05c-0.19-0.16,0.18-0.22,0.08-0.41c-0.01,0.02-0.02,0.07-0.07,0.04
				l-0.08-0.24c-0.44,0.04-0.85-0.43-1.33-0.31c0.16-0.1,0.39-0.3,0.68-0.33l0.01,0.09c0.05-0.03,0.27,0.01,0.32-0.13
				c-0.2-0.18-0.41-0.24-0.7-0.21c-0.03-0.05-0.07-0.11-0.09-0.16c-0.01,0.02-0.01,0.03-0.02,0.05c-0.05-0.11-0.04-0.12,0.01-0.16
				c0.01-0.01,0.02-0.02,0.03-0.02c0-0.44-1.02-0.1-1.38-0.44c-0.15,0.01-0.03,0.06-0.22,0.09c-0.39-0.31-0.66-0.52-1.11-0.75
				c-0.2,0.13-0.23,0.2-0.1,0.43l-0.34-0.16c0.45-0.38-0.55-0.62-0.07-0.99c-0.08-0.13-0.29-0.21-0.52-0.19
				c-0.05,0.11-0.13,0.29-0.38,0.23c-0.32-0.24-0.25-0.16-0.51-0.38c-0.04-0.17,0.09-0.21,0.1-0.33c-0.51,0.1-0.33-0.43-0.78-0.49
				c-0.29-0.01-0.84-0.09-0.9,0.18C67.39,27.82,67.43,27.62,67.5,27.41z"/>
		</g>
	</g>
</g>
<g>
	<g>
		<path class="st0" d="M121.49,122.24c-0.26,2.04-0.28,4.22-0.89,6.19c-0.57,1.85-1.85,3.33-2.43,5.21
			c-0.37,1.2,1.51,1.72,1.88,0.52c0.63-2.06,2.09-3.66,2.59-5.78c0.47-1.99,0.54-4.1,0.8-6.13
			C123.6,121,121.65,121.01,121.49,122.24L121.49,122.24z"/>
	</g>
</g>
<g>
	<g>
		<g>
			<path class="st0" d="M143.62,71.68c0.06,0.15,0.15,0.35,0.3,0.62c-0.44-0.22-0.33,0.09-0.24,0.48c0.09,0.38,0.16,0.85-0.17,0.8
				c-0.36,0.24-0.51,0.81-1.11,0.55c0.28,0.97,0,0.97-0.31,0.89c-0.32-0.09-0.65-0.27-0.71,0.41c-0.2,0.29-0.23,1.09,0.06,1.37
				c-0.4,0.15-0.43-0.72-0.7-0.32l0.01-0.69c-0.13-0.15-0.29-0.48-0.4-0.34l-0.07,0.7c-0.45-0.72-0.56,0.65-1.03,0.19
				c0.31,0.49-0.11,0.4-0.07,0.96c-0.08-0.26-0.35-0.4-0.26-0.6c-0.37-0.2-0.74,0.98-0.94-0.01l-0.15,0.3
				c-0.26,0.41-0.43-0.12-0.64-0.28l-0.05,0.38c-0.16,0.2-0.43,0.14-0.53-0.22c-0.37-0.24-0.93,0.55-1.4,0.95
				c-0.36-0.44-0.31,0.67-0.71,0.87c-0.21-0.26-0.68,0.22-0.76-0.33c0.33-0.02,0.51-1.04,0.82-0.78c-0.09-0.36,0.62-0.31,0.38-0.85
				c-0.76,0.78-1.47-0.11-2.18,0.66c0.18-1.02-0.66-0.71-0.94-0.6l0.02-0.28c-0.21-0.18-0.37-0.26-0.77,0.03
				c-0.44,0.02-0.89,0.13-1.17-0.5c-0.43-0.81-1.23,0.24-1.55,0.9c0.53,0.99,1.35-0.43,1.61,1.31c-0.41-0.35-0.5,0.02-0.92,0.5
				l0.14,0.36l-0.18,0.19c0.03,0.37-0.21,0.65-0.24,1.02l0.54,0.07c-0.25-0.36,0-0.74,0.14-1.11l0.26,0.17
				c-0.04-0.18-0.19-0.36,0.04-0.56c0.1,0.09,0.28-0.1,0.37,0.17l-0.33,0.75c0.43-0.57,0.48,0.99,0.9,0.42l-0.01,0.83l0.33-0.01
				l-0.08,0.28l0.37,0.17c0.23-0.1,0.31-0.47,0.39-0.75c0.17-0.01,0.34-0.11,0.38,0.08l-0.26,0.47l0.15,0.18
				c-0.1-0.18,0.19-0.28,0.25-0.47c0.37,0.17,0.27,0.08,0.46,0.53c0.3-0.29,0.54,0.35,0.64-0.3c0.42,0.44,0.94,0.51,1.41,0.58
				l0.25-0.38c0.52,0.53,0.84-0.05,1.45-0.1l-0.06,0.19l0.37-0.5c0.44,0.42,0.66-0.53,1.18,0.05c0.59,0.3,0.87-0.41,1.03-1.28
				c0.26-0.42,0.63,0.16,0.89,0.2l-0.15,0.32l0.24,0.33c0.36-0.18,0.41,0.1,0.86-0.31c0.73,0.28,0.44-1.09,0.61-1.64
				c0.24,0.25,0.49,0.48,0.76,0.71l-0.05-0.18c0.15-1.05,0.18-0.45,1-0.73l-0.19-0.52c0.44,0.51,0.31-0.36,0.64-0.44
				c0.13-0.08,1.01,0.59,1.01-0.19c0.84,0.22,0.32-1.39,0.75-1.55c0.48,0.17,0.08-0.74,0.68-0.03l-0.04,0.04l0.64,0.66l-0.39-0.53
				c0.31,0.08,0.36-0.27,0.97,0.16c-0.14-0.4-0.31-0.81-0.49-1.18c0,0.15-0.13,0.18-0.26,0.2l0.13,0.13
				c-0.07,0.08-0.19,0.37-0.45,0.25l-0.02-0.26c-0.23-0.01-0.31-0.34-0.35-0.45c0.44,0.03-0.03-0.39,0.03-0.65
				c0.09,0.03,0.22,0.01,0.33,0.17c0.01-0.17,0.62-0.13,0.14-0.57l0.09,0.04C145.41,73.05,144.45,72.37,143.62,71.68z"/>
		</g>
	</g>
</g>
<g>
	<g>
		<g>
			<path class="st0" d="M66.68,70.88c-0.15,0.17-0.27,0.41-0.37,0.72c-0.85-0.79-1,1.36-1.86,1c-0.71,0.07-1.21,0.56-1.92,0.11
				c-0.23,2.02-1.35-0.36-1.91,0.93c-0.36,0.22-0.62,0.98-0.36,1.33c-0.52,0.04-0.32-0.81-0.77-0.49l0.2-0.66
				c-0.12-0.18-0.24-0.53-0.43-0.43l-0.27,0.66c-0.41-0.82-0.84,0.5-1.32-0.04c0.28,0.56-0.22,0.37-0.26,0.93
				c-0.05-0.28-0.35-0.47-0.21-0.65c-0.42-0.28-1.06,0.83-1.13-0.2l-0.23,0.27c-0.37,0.35-0.5-0.21-0.72-0.41L55,74.31
				c-0.22,0.18-0.53,0.05-0.6-0.33c-0.4-0.32-1.18,0.36-1.78,0.64c-0.36-0.52-0.47,0.59-0.98,0.7c-0.21-0.31-0.85,0.03-0.85-0.53
				c0.4,0.07,0.78-0.89,1.1-0.55c-0.04-0.38,0.78-0.17,0.58-0.76c-1.01,0.6-1.68-0.46-2.65,0.07c0.43-0.95-0.61-0.88-0.95-0.9
				l0.09-0.26c-0.19-0.24-0.34-0.38-0.88-0.24c-0.5-0.14-1.03-0.23-1.15-0.95c-0.21-0.95-1.4-0.32-2.01,0.14
				c0.26,1.19,1.63,0.23,1.4,1.99c-0.38-0.52-0.59-0.19-1.23,0.06l0.05,0.42l-0.27,0.09c-0.08,0.37-0.46,0.52-0.62,0.86
				c0.21,0.12,0.43,0.24,0.65,0.34c-0.2-0.46,0.22-0.71,0.5-1l0.27,0.29c0-0.2-0.13-0.43,0.21-0.51c0.1,0.13,0.37,0.03,0.4,0.33
				l-0.61,0.58c0.68-0.36,0.31,1.19,1,0.81l-0.21,0.81l0.43,0.13l-0.16,0.24l0.44,0.32c0.31,0,0.5-0.35,0.66-0.59
				c0.21,0.05,0.45,0.02,0.47,0.21l-0.42,0.37L48,77.31c-0.09-0.21,0.3-0.21,0.42-0.37c0.45,0.3,0.33,0.18,0.49,0.69
				c0.43-0.19,0.63,0.51,0.87-0.11c0.46,0.57,1.1,0.78,1.67,0.96l0.36-0.32c0.55,0.65,1.03,0.13,1.74,0.21l-0.1,0.18l0.5-0.41
				c0.45,0.49,0.85-0.41,1.35,0.28c0.62,0.4,1.04-0.25,1.38-1.07c0.37-0.36,0.68,0.29,0.96,0.37l-0.23,0.28l0.2,0.37
				c0.43-0.1,0.43,0.18,1-0.12c0.71,0.43,0.72-0.97,1.05-1.46l0.63,0.89l-0.01-0.19c0.46-0.97,0.33-0.41,1.29-0.42l-0.03-0.56
				c0.31,0.62,0.46-0.24,0.86-0.21c0.19-0.03,0.83,0.9,1.17,0.18c0.75,0.5,1-1.14,1.59-1.1c0.4,0.37,0.55-0.62,0.72,0.29l-0.06,0.02
				l0.24,0.9l-0.06-0.66c0.25,0.22,0.53-0.04,0.82,0.64l0.34-1.26c-0.11,0.13-0.25,0.08-0.4,0.03l0.04,0.18
				c-0.13,0.04-0.43,0.23-0.61-0.02l0.15-0.23c-0.23-0.13-0.09-0.46-0.05-0.56c0.45,0.25,0.25-0.37,0.54-0.55
				c0.08,0.07,0.22,0.12,0.2,0.32c0.16-0.15,0.72,0.26,0.63-0.39c0.02,0.03,0.03,0.06,0.05,0.08
				C67.47,73.04,67.08,71.92,66.68,70.88z"/>
		</g>
	</g>
</g>
</svg>
